<?xml version="1.0" encoding="UTF-8" standalone="no"?>
<svg
   xmlns:osb="http://www.openswatchbook.org/uri/2009/osb"
   xmlns:dc="http://purl.org/dc/elements/1.1/"
   xmlns:cc="http://creativecommons.org/ns#"
   xmlns:rdf="http://www.w3.org/1999/02/22-rdf-syntax-ns#"
   xmlns:svg="http://www.w3.org/2000/svg"
   xmlns="http://www.w3.org/2000/svg"
   xmlns:xlink="http://www.w3.org/1999/xlink"
   xmlns:sodipodi="http://sodipodi.sourceforge.net/DTD/sodipodi-0.dtd"
   xmlns:inkscape="http://www.inkscape.org/namespaces/inkscape"
   version="1.1"
   id="Capa_1"
   x="0px"
   y="0px"
   viewBox="0 0 59.982 59.982"
   style="enable-background:new 0 0 59.982 59.982;"
   xml:space="preserve"
   sodipodi:docname="icon.svg"
   inkscape:version="1.0.1 (3bc2e813f5, 2020-09-07)"
   inkscape:export-filename="/mem/yt.png"
   inkscape:export-xdpi="204.86147"
   inkscape:export-ydpi="204.86147"><metadata
     id="metadata57"><rdf:RDF><cc:Work
         rdf:about=""><dc:format>image/svg+xml</dc:format><dc:type
           rdf:resource="http://purl.org/dc/dcmitype/StillImage" /><dc:title /></cc:Work></rdf:RDF></metadata><defs
     id="defs55"><linearGradient
       id="linearGradient856"
       osb:paint="solid"><stop
         style="stop-color:#d65050;stop-opacity:1;"
         offset="0"
         id="stop854" /></linearGradient><linearGradient
       id="linearGradient1224"
       osb:paint="solid"><stop
         style="stop-color:#ffffff;stop-opacity:1;"
         offset="0"
         id="stop1222" /></linearGradient><linearGradient
       id="linearGradient1197"
       osb:paint="solid"><stop
         style="stop-color:#00ac20;stop-opacity:1;"
         offset="0"
         id="stop1195" /></linearGradient><linearGradient
       inkscape:collect="always"
       xlink:href="#linearGradient1224"
       id="linearGradient877"
       gradientUnits="userSpaceOnUse"
       gradientTransform="matrix(1.4806317,0,0,1.4806317,81.893775,59.084692)"
       x1="-46.789307"
       y1="-13.693111"
       x2="-24.617432"
       y2="-13.693111" /><pattern
       patternUnits="userSpaceOnUse"
       width="40.392463"
       height="38.59914"
       patternTransform="translate(-2.5591658,9.6786121)"
       id="pattern1081"><text
   id="text1220"
   y="38.59914"
   x="1.4232721"
   style="font-style:normal;font-weight:normal;font-size:72.8715px;line-height:125%;font-family:sans-serif;letter-spacing:0px;word-spacing:0px;fill:#ffffff;fill-opacity:1;stroke:#d59600;stroke-width:0;stroke-linecap:butt;stroke-linejoin:miter;stroke-miterlimit:4;stroke-dasharray:none;stroke-opacity:1"
   xml:space="preserve"><tspan
     style="font-style:italic;font-variant:normal;font-weight:normal;font-stretch:normal;font-size:58.2972px;font-family:'Times New Roman';-inkscape-font-specification:'Times New Roman, Italic';fill:#ffffff;fill-opacity:1;stroke:#d59600;stroke-width:0;stroke-miterlimit:4;stroke-dasharray:none;stroke-opacity:1"
     y="38.59914"
     x="1.4232721"
     id="tspan1218"
     sodipodi:role="line">F</tspan></text>
</pattern><pattern
       patternUnits="userSpaceOnUse"
       width="49.216159"
       height="28.034178"
       patternTransform="translate(7.7381977,17.518732)"
       id="pattern5261"><text
   transform="scale(0.93972412,1.0641421)"
   id="text5259"
   y="25.862383"
   x="-3.3408346"
   style="font-style:normal;font-weight:normal;font-size:34.0399px;line-height:125%;font-family:sans-serif;letter-spacing:0px;word-spacing:0px;fill:#ffffff;fill-opacity:1;stroke:none;stroke-width:0.850999px;stroke-linecap:butt;stroke-linejoin:miter;stroke-opacity:1"
   xml:space="preserve"><tspan
     style="stroke-width:0.850999px"
     y="25.862383"
     x="-3.3408346"
     id="tspan5257"
     sodipodi:role="line">Ref</tspan></text>
</pattern></defs><sodipodi:namedview
     pagecolor="#ffffff"
     bordercolor="#666666"
     borderopacity="1"
     objecttolerance="10"
     gridtolerance="10"
     guidetolerance="10"
     inkscape:pageopacity="0"
     inkscape:pageshadow="2"
     inkscape:window-width="1366"
     inkscape:window-height="683"
     id="namedview53"
     showgrid="false"
     inkscape:zoom="4"
     inkscape:cx="23.22995"
     inkscape:cy="9.436654"
     inkscape:window-x="0"
     inkscape:window-y="24"
     inkscape:window-maximized="1"
     inkscape:current-layer="g871"
     inkscape:document-rotation="0" /><g
     inkscape:groupmode="layer"
     id="layer1"
     inkscape:label="youtube 1"
     style="display:inline"
     sodipodi:insensitive="true"><path
       style="fill:#ff2200;fill-opacity:1;fill-rule:evenodd;stroke:none;stroke-width:0.973437px;stroke-linecap:butt;stroke-linejoin:miter;stroke-opacity:1"
       d="m 15.374964,0.09331807 h -0.599652 c -0.07993,0 -0.160998,-0.01398461 -0.239862,0 -0.162586,0.02883002 -0.317138,0.09876767 -0.479725,0.12759773 -0.07886,0.0139846 -0.16146,-0.0166827 -0.239861,0 -0.123961,0.0263776 -0.237149,0.0949767 -0.359791,0.12759765 -0.03879,0.0103159 -0.07993,0 -0.119931,0 h -0.359793 -0.959446 -0.239862 c -0.04,0 -0.08202,-0.0134492 -0.119926,0 -0.0848,0.0300748 -0.153143,0.10453128 -0.239862,0.1275978 -0.187813,0.0499549 -0.820984,-0.0589254 -0.959445,0 -0.104985,0.0446783 -0.138727,0.20139554 -0.239863,0.2551954 -0.123146,0.0655094 -0.3418426,-0.0366738 -0.4797228,0 -0.1226435,0.0326215 -0.2371485,0.0949766 -0.3597918,0.1275977 -0.038785,0.0103159 -0.086668,-0.023593 -0.1199309,0 C 9.0703368,0.99236556 8.9669396,1.2358341 8.7787768,1.3692954 c -0.066526,0.047185 -0.1640106,-0.0269 -0.2398612,0 -0.8687079,0.308081 0.1890834,-0.036787 -0.3597923,0.2551953 -0.035758,0.019021 -0.082007,-0.01345 -0.1199306,0 -0.084802,0.030075 -0.1568639,0.092276 -0.2398614,0.1275977 -0.1173761,0.049952 -0.2467203,0.067447 -0.359792,0.1275978 -0.050566,0.0269 -0.079952,0.085065 -0.1199306,0.1275977 -0.079952,0.085065 -0.14578,0.1884649 -0.2398614,0.2551954 -0.033261,0.023593 -0.079952,0 -0.1199305,0 C 6.8998628,2.3050114 6.8114683,2.333013 6.7399555,2.390077 6.2212203,2.9419743 6.7717268,2.4100752 6.2602326,2.7728702 6.1661514,2.8396007 6.100325,2.9430006 6.0203715,3.0280656 L 5.6605793,3.4108588 5.5406484,3.5384565 c -0.039979,0.042532 -0.065082,0.1130092 -0.1199303,0.1275977 -0.1163502,0.030948 -0.2484392,-0.047389 -0.359792,0 C 4.9559414,3.7107325 4.9115221,3.8490696 4.8210645,3.9212497 4.535973,4.1487378 4.5322171,3.9559945 4.2214112,4.1764452 4.1743722,4.2098106 4.1414592,4.2615103 4.1014804,4.3040429 4.0215284,4.346575 3.935997,4.3788852 3.8616192,4.4316406 3.7675372,4.4983713 3.7158394,4.6201055 3.6217582,4.6868361 3.5473792,4.739591 3.4562746,4.7616784 3.3818964,4.8144338 c -0.047039,0.033365 -0.069365,0.1006979 -0.1199306,0.1275977 -0.035759,0.019021 -0.084172,-0.019021 -0.1199307,0 C 3.0779821,4.9761056 2.8453823,5.257649 2.7822432,5.3248247 L 2.6623125,5.4524224 c -0.039979,0.042532 -0.094649,0.073798 -0.1199308,0.1275977 -0.035759,0.076085 0.01939,0.1726702 0,0.2551954 -0.03066,0.1304841 -0.089272,0.2523093 -0.1199307,0.3827932 -0.019389,0.082525 0.01939,0.1726702 0,0.2551954 -0.030661,0.1304841 -0.09514,0.2509053 -0.1199306,0.3827932 -0.015679,0.083413 0.019389,0.1726702 0,0.2551955 -0.1447847,0.6161623 -0.056994,-0.00633 -0.239861,0.3827932 -0.017879,0.038042 0.012641,0.087247 0,0.1275977 -0.028267,0.090225 -0.091665,0.1649703 -0.1199309,0.2551955 -0.042481,0.1355868 0.042481,0.374804 0,0.5103908 -0.028268,0.090226 -0.1023997,0.1619367 -0.1199306,0.2551955 -0.039199,0.2085331 0,0.4253257 0,0.6379886 0,0.085064 0.01939,0.1726702 0,0.2551956 -0.021679,0.092268 -0.091665,0.1649697 -0.1199309,0.2551952 -0.012641,0.040353 0.01788,0.089555 0,0.1275971 -0.064458,0.137164 -0.1754003,0.24563 -0.2398612,0.382794 -0.017879,0.03804 0.012641,0.08724 0,0.127597 -0.028267,0.09023 -0.091665,0.164971 -0.1199304,0.255196 -0.012641,0.04035 0.01788,0.08955 0,0.127598 -0.025283,0.0538 -0.094649,0.0738 -0.1199308,0.127597 -0.037385,0.07955 0.036659,0.648578 0,0.765586 -0.028268,0.09023 -0.091665,0.164971 -0.1199307,0.255196 -0.037931,0.121072 0.030971,0.378596 0,0.510391 -0.30293335,1.289198 0.043306,-0.09216 -0.23986145,0.51039 -0.0178782,0.03804 0,0.08507 0,0.127598 v 0.255197 0.637987 0.63799 c 0,0.08507 0.0193915,0.17267 0,0.255195 -0.0216803,0.09227 -0.0916629,0.16497 -0.11993068,0.255195 -0.0274973,0.08776 0.0353809,0.307508 0,0.382793 -0.0252834,0.0538 -0.10205247,0.07054 -0.11993067,0.127598 -0.0252835,0.0807 0,0.170131 0,0.255196 v 0.255195 1.020782 2.934748 0.893184 c 0,0.08507 0.0252834,0.174494 0,0.255195 -0.0178782,0.05706 -0.10205247,0.07054 -0.11993067,0.127598 -0.0252837,0.08069 0,0.17013 0,0.255195 v 0.637989 c 0,0.04254 0.009698,0.08634 0,0.127598 -0.030661,0.130484 -0.0633952,0.262493 -0.11993061,0.382792 -0.23800898,0.50645 -0.0379063,-0.56394 -0.23986141,0.510391 -0.0235208,0.125121 0,0.255196 0,0.382794 v 0.765586 c 0,0.170129 0.0313606,0.343565 0,0.510391 -0.0110884,0.05898 -0.10621866,0.06924 -0.11993068,0.127598 -0.01964442,0.0836 0,1.087162 0,1.14838 v 1.658769 4.083128 1.148379 c 0,0.127598 -0.05363488,0.268667 0,0.382793 0.05056687,0.1076 0.17714051,0.1551 0.23986139,0.255197 0.04435,0.07078 -0.0357566,0.179109 0,0.255195 0.27443772,0.583964 -0.0497082,-0.541451 0.23986131,0.382792 0.0126417,0.04035 -0.0126416,0.08724 0,0.127598 0.0282681,0.09023 0.0982503,0.162929 0.11993067,0.255196 0.0193915,0.08253 -0.0357564,0.17911 0,0.255196 0.30905319,0.65762 0.11232083,0.123548 0.35979201,0.255195 0.050567,0.0269 0.0799533,0.08507 0.11993079,0.127597 0.039979,0.04253 0.094649,0.0738 0.1199307,0.127598 0.01788,0.03804 -0.022176,0.09221 0,0.127597 0.00197,0.0032 0.4282225,0.482995 0.4797224,0.510391 0.113072,0.06015 0.2586576,0.0469 0.3597924,0.127599 0.071512,0.05706 0.073938,0.173642 0.1199305,0.255195 0.074161,0.131499 0.1498186,0.263044 0.2398611,0.382793 0.058017,0.07715 0.6488919,0.709177 0.7195841,0.765586 0.4846934,0.38676 0.056969,0.0202 0.3597922,0.127598 0.1696076,0.06015 0.3101151,0.195045 0.4797226,0.255196 0.037924,0.01344 0.079952,0 0.1199305,0 0.1199308,0.04254 0.2467204,0.06744 0.3597923,0.127597 0.1011342,0.0538 0.1457799,0.188465 0.2398611,0.255195 0.5238026,0.371527 -0.039532,-0.05655 0.4797229,0.127598 0.053632,0.01902 0.074701,0.09151 0.1199306,0.127597 0.1153111,0.09202 0.2444808,0.163184 0.359792,0.255197 0.045226,0.03609 0.065083,0.113008 0.1199308,0.127598 0.1163497,0.03094 0.2421904,-0.02502 0.3597921,0 0.087655,0.01866 0.1550575,0.09752 0.2398611,0.127597 0.037924,0.01345 0.084172,-0.01902 0.1199308,0 0.050565,0.0269 0.066295,0.108577 0.1199306,0.127598 0.07585,0.0269 0.1622948,-0.02063 0.2398614,0 0.086724,0.02306 0.1599075,0.08507 0.2398612,0.127597 0.2639287,0.140402 0.544044,0.3304 0.8395148,0.382793 0.1182988,0.02097 0.2421904,-0.02502 0.3597919,0 0.1495894,0.03183 0.5189227,0.339847 0.5996535,0.382794 0.1130717,0.06015 0.2467202,0.06744 0.359792,0.127598 0.050565,0.0269 0.066294,0.108576 0.1199309,0.127597 0.1137759,0.04035 0.2398611,0 0.3597918,0 H 10.57774 c 0.119927,0 0.243438,-0.03094 0.359788,0 0.05484,0.01459 0.06629,0.108577 0.119931,0.127598 0.07586,0.0269 0.159909,0 0.239862,0 0.159905,0.04254 0.326681,0.06248 0.47972,0.127597 0.05251,0.02234 0.06629,0.108577 0.119931,0.127598 0.110846,0.03931 0.487784,-0.03967 0.599657,0 0.0848,0.03007 0.155055,0.09752 0.239861,0.127597 0.06492,0.02303 0.438863,0 0.479721,0 h 0.959446 3.957711 2.638477 0.959444 c 0.119932,0 0.242191,-0.02502 0.359794,0 0.161626,0.03439 0.316548,0.102798 0.479721,0.127599 0.118726,0.01804 0.239863,0 0.359794,0 h 0.719581 4.077642 1.199308 0.239864 c 0.11993,0 0.243442,-0.03094 0.359789,0 0.05484,0.01459 0.06938,0.100697 0.119931,0.127597 0.02687,0.0143 0.451223,0 0.479725,0 h 0.839513 0.359793 c 0.07993,0 0.168345,-0.03804 0.23986,0 0.101135,0.0538 0.145778,0.188465 0.239861,0.255196 0.03329,0.0236 0.07993,0 0.119931,0 h 0.119932 c 0.09817,0 0.521948,-0.02756 0.599652,0 0.0848,0.03007 0.153141,0.104531 0.23986,0.127598 0.07757,0.02063 0.159911,0 0.239863,0 h 0.239862 0.959446 1.798959 c 0.104467,0 0.675318,-0.02354 0.719584,0 0.05055,0.0269 0.06939,0.100697 0.119928,0.127597 0.03646,0.0194 0.396912,0 0.479726,0 h 1.079376 2.758403 3.23813 0.839513 0.359795 c 0.04,0 0.08283,0.0158 0.119931,0 0.165994,-0.07065 0.313727,-0.184553 0.479721,-0.255195 0.08329,-0.03545 0.266585,0.02479 0.359793,0 0.122642,-0.03263 0.237147,-0.09497 0.359792,-0.127597 0.07757,-0.02063 0.159906,0 0.239859,0 h 0.479726 c 0.03999,0 0.08202,0.01345 0.11993,0 0.0848,-0.03007 0.155056,-0.09752 0.239862,-0.127599 0.07316,-0.02595 0.626957,0 0.719583,0 0.03999,0 0.08417,0.01902 0.119931,0 0.05054,-0.0269 0.06629,-0.108575 0.11993,-0.127597 0.04905,-0.0174 0.81774,0 0.839515,0 0.04,0 0.08202,0.01346 0.119931,0 0.217068,0.0769 0.223048,-0.2067 0.35979,-0.255196 0.07587,-0.0269 0.159909,0 0.239862,0 0.199885,0 0.403652,0.0417 0.599654,0 0.08767,-0.01866 0.15314,-0.104532 0.23986,-0.127598 0.07757,-0.02063 0.159909,0 0.239862,0 0.07993,-0.04254 0.155058,-0.09752 0.239863,-0.127597 0.113775,-0.04035 0.243443,0.03094 0.359792,0 0.328074,-0.08726 0.192991,-0.17942 0.479722,-0.382793 0.03328,-0.0236 0.08417,0.01902 0.11993,0 0.05055,-0.0269 0.06937,-0.100698 0.119931,-0.127597 0.03576,-0.01902 0.08417,0.01902 0.119931,0 0.05054,-0.0269 0.06629,-0.108578 0.119931,-0.127599 0.06078,-0.02156 0.741471,0 0.839514,0 0.03999,0 0.08202,0.01346 0.119932,0 0.410094,-0.145438 0.08925,-0.105834 0.479721,-0.382793 0.03327,-0.0236 0.08417,0.01902 0.11993,0 0.101136,-0.0538 0.138727,-0.201395 0.239862,-0.255195 0.11307,-0.06015 0.25139,-0.05839 0.359793,-0.127598 0.09694,-0.0619 0.142904,-0.193302 0.23986,-0.255195 0.108404,-0.0692 0.246722,-0.06744 0.359793,-0.127598 0.06407,-0.03408 0.296652,-0.315618 0.359793,-0.382794 0.0036,-0.0038 0.455501,-0.458852 0.47972,-0.51039 0.01787,-0.03804 -0.01787,-0.08956 0,-0.127598 0.02527,-0.0538 0.08858,-0.07755 0.119932,-0.127598 0.04957,-0.07913 0.07036,-0.176063 0.119931,-0.255196 0.09223,-0.147227 0.267538,-0.235564 0.359793,-0.382792 0.04957,-0.07913 0.06629,-0.179111 0.119929,-0.255195 0.06783,-0.09624 0.159909,-0.170131 0.239862,-0.255196 0.04,-0.04254 0.09466,-0.0738 0.119931,-0.127598 0.03576,-0.07609 -0.02527,-0.174495 0,-0.255196 0.02828,-0.09023 0.09165,-0.164969 0.11993,-0.255195 0.01264,-0.04035 -0.01788,-0.08956 0,-0.127597 0.02527,-0.0538 0.106219,-0.06924 0.119931,-0.127599 0.0291,-0.123787 -0.04452,-0.264321 0,-0.382792 0.04199,-0.111696 0.172019,-0.158956 0.239862,-0.255195 0.264227,-0.06426 0.06339,-0.262493 0.11993,-0.382794 0.02527,-0.0538 0.09466,-0.0738 0.11993,-0.127598 0.01788,-0.03804 -0.0096,-0.08634 0,-0.127598 0.03065,-0.130483 0.08927,-0.252308 0.11993,-0.382792 0.0096,-0.04126 -0.02219,-0.09221 0,-0.127598 0.06271,-0.100096 0.181688,-0.152039 0.239862,-0.255195 0.390684,-0.692767 0.03829,-0.163032 0.119932,-0.510392 0.03065,-0.130484 0.08927,-0.252308 0.11993,-0.382792 0.01938,-0.08253 -0.03576,-0.179112 0,-0.255195 0.02527,-0.0538 0.102054,-0.07053 0.119932,-0.127599 0.03598,-0.114838 -0.03598,-0.267955 0,-0.382793 0.289567,-0.924244 -0.03459,0.201171 0.239861,-0.382793 0.01343,-0.0286 0,-0.48007 0,-0.510391 V 30.20638 28.802806 28.547611 c 0,-0.08507 -0.01938,-0.17267 0,-0.255196 0.0217,-0.09227 0.102398,-0.161936 0.119929,-0.255196 0.03134,-0.166826 0,-0.34026 0,-0.51039 v -0.893185 c 0,-0.127597 -0.0291,-0.259005 0,-0.382792 0.0137,-0.05836 0.106219,-0.06924 0.119931,-0.127598 0.03154,-0.134289 0,-0.582432 0,-0.765587 v -1.65877 -3.700334 -3.95553 -1.403574 -0.382795 c 0,-0.08506 -0.01314,-0.171286 0,-0.255195 0.0271,-0.17298 0.09285,-0.33741 0.119931,-0.51039 0.01314,-0.08391 0,-0.17013 0,-0.255195 V 12.215102 9.6631468 7.8767792 c 0,-0.2033607 0.02436,-0.7635812 0,-0.8931842 -0.0111,-0.058982 -0.09084,-0.07602 -0.119931,-0.1275977 -0.09197,-0.163105 -0.169435,-0.3355589 -0.23986,-0.5103909 -0.04979,-0.1236248 -0.08927,-0.2523091 -0.119932,-0.3827931 -0.0096,-0.041263 0.01787,-0.089555 0,-0.1275978 -0.02527,-0.0538 -0.09466,-0.073798 -0.119929,-0.1275977 -0.01787,-0.038042 0,-0.085065 0,-0.1275977 C 59.349532,5.4949551 59.323232,5.4009093 59.26959,5.3248247 59.20175,5.2285847 59.109681,5.1546944 59.029728,5.0696292 L 58.789866,4.8144338 c -0.04,-0.042532 -0.09466,-0.073798 -0.11993,-0.1275977 -0.08273,-0.1760028 0.145244,-0.1141326 -0.11993,-0.2551955 -0.07028,-0.037378 -0.201796,-2.0655634 -0.290172,-2.0890694 -0.217069,0.076907 -2.283296,-1.59988638 -2.420037,-1.64838098 -0.07588,-0.0269 -3.322745,-2.00554872 -3.365788,-1.18792979"
       id="path844"
       inkscape:connector-curvature="0"
       sodipodi:nodetypes="csccscsccscccsccsccscccscccsscsccssccccccssccccssccscssccccccccccscsccsccccscccsccsscccssccsccsccccccccsccccccsccccscccccccccccccccsscccccccscccsccscccsccscsccssccsccsccsccccsccccssccsccscsscccccsccccsccccccccccccccscccccccccccccscccccsccsccssccsccccsccsccscccccccccsccccc" /><path
       style="fill:#ffffff;fill-opacity:1;fill-rule:evenodd;stroke:none;stroke-width:0.760753px;stroke-linecap:butt;stroke-linejoin:miter;stroke-opacity:1"
       d="m 24.970092,9.9804878 c 0.04668,0.3825882 0.214929,0.7569292 0.257018,1.1398302 0.0165,0.150938 0.01136,0.303288 -7.55e-4,0.454074 -0.01505,0.187028 -0.07009,0.370089 -0.08058,0.55743 -0.01008,0.180179 0.0079,0.361267 0.01903,0.541753 0.01485,0.239222 0.0762,0.47858 0.0586,0.717111 -0.01666,0.22532 -0.134023,0.436343 -0.160408,0.660787 -0.01114,0.09469 0.05152,1.124995 0.05783,1.171184 0.02417,0.177247 0.112365,0.347949 0.118622,0.526076 0.0066,0.187762 -0.08718,0.369666 -0.08058,0.55743 0.0062,0.178126 0.101339,0.348326 0.118622,0.526076 0.0091,0.09368 -0.04793,0.184955 -0.04026,0.278714 0.0029,0.03529 0.19926,0.860557 0.197704,0.876793 -0.0079,0.08354 -0.134338,0.126164 -0.159664,0.206713 -0.0369,0.117416 0.0051,0.246508 -0.02052,0.366394 -0.0088,0.04113 -0.07748,0.06146 -0.07983,0.103357 -0.0087,0.156646 0.152082,0.528082 0.158169,0.701435 0.0034,0.09388 -0.0315,0.185308 -0.0403,0.278714 -0.01147,0.121787 -0.009,0.244605 -0.02052,0.366394 -0.0088,0.09341 -0.03147,0.18531 -0.0403,0.278717 -0.08461,0.897585 -0.0047,-0.07596 0.0388,0.62943 0.0071,0.114074 -0.02816,0.510625 -0.06081,0.64511 -0.03139,0.129341 -0.09234,0.252035 -0.12012,0.382072 -0.0062,0.02907 0.02143,0.05806 0.01978,0.08768 -0.0053,0.09367 -0.04014,0.184846 -0.0403,0.278715 -5.1e-5,0.05937 0.04287,0.116116 0.03955,0.175359 -0.0037,0.06623 -0.05057,0.125342 -0.06006,0.191036 -0.0042,0.02937 0.02144,0.05807 0.01978,0.08768 -0.0053,0.09367 -0.04607,0.184884 -0.04029,0.278715 0.0073,0.118687 0.09607,0.233202 0.07907,0.350718 -0.01203,0.0831 -0.134337,0.126163 -0.159664,0.206712 -0.2089,0.664463 0.04206,0.130042 0.01902,0.541752 -0.0037,0.06623 -0.05058,0.125343 -0.06006,0.191035 -0.0042,0.02937 0.02403,0.0583 0.01978,0.08768 -0.0095,0.06569 -0.04003,0.127357 -0.06006,0.191035 -0.04003,0.127358 -0.069,0.25797 -0.120121,0.382072 -0.01619,0.03925 -0.07382,0.06181 -0.07983,0.103357 -0.0085,0.05876 0.04287,0.116115 0.03955,0.175358 -0.0037,0.06623 -0.05058,0.125341 -0.06006,0.191035 -0.0042,0.02938 0.01317,0.05846 0.01978,0.08768 0.01978,0.08768 0.05383,0.174022 0.05931,0.263037 0.0075,0.12234 -0.02806,0.244054 -0.02052,0.366395 0.0066,0.104905 0.145154,0.542075 0.138391,0.613755 -0.01006,0.106499 -0.117497,0.189553 -0.139892,0.294392 -0.01242,0.05816 0.02637,0.116905 0.03955,0.175358 0.01978,0.08768 0.0643,0.174173 0.05931,0.263038 -0.0022,0.0419 -0.06717,0.0631 -0.07983,0.103357 -0.009,0.02847 0.01317,0.05846 0.01978,0.08768 0.0065,0.02923 0.01317,0.05846 0.01978,0.08768 0.01978,0.08768 -0.01816,0.217488 0.05932,0.263036 0.402016,0.236322 0.133376,0.152163 0.420739,0.35754 0.300965,0.309401 0.255662,0.683085 1.071732,0.315452 0.129266,-0.05823 0.255172,-0.14308 0.358863,-0.238068 1.186093,-1.086545 -0.608998,0.362391 0.498754,-0.532458 1.242305,-1.118729 -0.344223,0.370966 0.897158,-0.595168 1.607118,-1.250777 -0.663314,0.261342 0.87739,-0.682845 0.184455,-0.113043 0.358859,-0.238067 0.538291,-0.357101 0.119624,-0.07935 0.23019,-0.170291 0.358866,-0.238067 0.118631,-0.06248 0.264578,-0.08176 0.378632,-0.150387 0.806657,-0.485391 0.05294,-0.222958 0.976988,-0.698524 0.669022,-0.344318 0.305174,-0.0063 1.07584,-0.260127 0.417142,-0.137383 0.603037,-0.434386 0.99676,-0.610845 0.119627,-0.05361 0.269896,-0.02747 0.398404,-0.06271 0.13246,-0.03633 0.252422,-0.100255 0.378635,-0.150387 0.126209,-0.05013 0.263515,-0.08312 0.378632,-0.150388 0.100665,-0.05883 0.156944,-0.16576 0.259261,-0.222389 0.113512,-0.06283 0.273353,-0.01929 0.398405,-0.06271 0.09886,-0.03433 0.186021,-0.08981 0.279032,-0.134711 0.09301,-0.04491 0.188045,-0.08679 0.279034,-0.134711 0.154942,-0.08162 0.300072,-0.177277 0.458462,-0.253745 0.384271,-0.185516 0.469569,-0.12526 0.8371,-0.40413 0.218128,-0.165511 0.362798,-0.401964 0.598356,-0.548137 0.166563,-0.10336 0.393547,-0.104296 0.577834,-0.181741 0.170608,-0.0717 1.025351,-0.570504 1.195959,-0.642199 0.09089,-0.03819 0.203001,-0.01912 0.298804,-0.04703 0.131669,-0.03837 0.248073,-0.109326 0.378633,-0.150388 0.05945,-0.01869 0.458213,-0.05199 0.498006,-0.07838 0.07566,-0.05018 0.09572,-0.145289 0.159662,-0.206712 0.07907,-0.07596 0.375225,-0.227564 0.458463,-0.253744 0.095,-0.02988 0.215044,0.0019 0.298803,-0.04703 0.1396,-0.08158 0.205354,-0.237025 0.339094,-0.325746 0.53937,-0.357815 0.191614,-0.0044 0.677438,-0.197419 0.04331,-0.01719 0.03824,-0.08328 0.07983,-0.103356 0.05883,-0.0284 0.136679,-0.0096 0.199201,-0.03135 0.09886,-0.03433 0.180172,-0.100382 0.279033,-0.134711 0.06251,-0.02171 0.145703,0.0041 0.199201,-0.03135 0.133743,-0.08872 0.200781,-0.24252 0.339095,-0.325747 0.14105,-0.08488 0.326312,-0.09677 0.478234,-0.166064 0.254562,-0.116111 0.486194,-0.267132 0.737497,-0.388454 0.350893,-0.274232 0.8365,-0.288016 1.235501,-0.466841 0.133747,-0.05994 -0.185608,-0.567963 -0.05693,-0.635739 0.118632,-0.06248 -0.290148,-0.671885 -0.458594,-0.735765 -0.176945,-0.06711 -0.303673,-0.214674 -0.477486,-0.288009 -0.497065,-0.13243 -0.870208,-0.546082 -1.161944,-0.771983 -0.228455,-0.176901 -2.580372,-1.32089 -2.845724,-1.430443 -0.328827,-0.135743 -2.923004,-1.389246 -3.159916,-1.49607 -0.260938,-0.11766 -2.70255,-1.164485 -2.866206,-1.215305 -0.115733,-0.03591 -1.272947,-0.979055 -1.374392,-1.040245 -0.101448,-0.06119 -0.82236,-0.372318 -0.937228,-0.410375 -0.142484,-0.0472 -2.782492,-0.7657151 -2.862073,-0.8137191 -0.238744,-0.144009 -2.025186,-0.7049721 -2.045911,-0.7287761 -0.01847,-0.0212 -0.329045,-0.2085291 -0.358117,-0.2160065 -0.03266,-0.0084 -0.06693,0.024073 -0.0996,0.015677 -0.04616,-0.011875 -0.0719,-0.065942 -0.11937,-0.072002 -0.06717,-0.00857 -0.1328,0.020903 -0.199202,0.031354 -0.03321,0.00522 -0.06693,0.024073 -0.0996,0.015677 -0.09233,-0.02375 -0.143762,-0.1318852 -0.238742,-0.1440043 -0.04856,-0.0062 -0.349686,0.07524 -0.398404,0.062709 -0.04616,-0.011875 -0.0719,-0.065942 -0.119374,-0.072002 -0.06717,-0.00857 -0.133916,0.048147 -0.199202,0.031354 -0.03265,-0.0084 0.0084,-0.070708 -0.01978,-0.087679 -0.05629,-0.033941 -0.133916,0.048147 -0.199202,0.031354 -0.04616,-0.011875 -0.0719,-0.065942 -0.119371,-0.072002 -0.06717,-0.00857 -0.133919,0.048147 -0.199203,0.031354 -0.03266,-0.0084 -0.350619,0.017471 -0.360099,0.083166 -0.0078,0.053818 -0.115504,0.094572 -0.09837,0.1705532 0.08672,0.3846573 0.07543,0.3345089 0.13839,0.6137546 0.01116,0.049544 0.06832,0.220896 0.0593,0.2630378 -0.02777,0.1300367 -0.08008,0.2547143 -0.120121,0.382072 z"
       id="path848"
       inkscape:connector-curvature="0"
       sodipodi:nodetypes="ccccccccsccccccccscccccccccccccscsccsccccccscccccscsscsssscssssssssccssssscsssscscscscsscssscscscssscscsccsssscssscscccc" /></g><g
     inkscape:groupmode="layer"
     id="layer4"
     inkscape:label="text"
     style="display:none"
     sodipodi:insensitive="true"><text
   xml:space="preserve"
   style="font-style:normal;font-weight:normal;font-size:30.9715px;line-height:125%;font-family:sans-serif;letter-spacing:0px;word-spacing:0px;fill:#ffffff;fill-opacity:1;stroke:#000000;stroke-width:1.29792;stroke-linecap:butt;stroke-linejoin:miter;stroke-miterlimit:4;stroke-dasharray:none;stroke-opacity:1"
   x="6.5727601"
   y="42.736706"
   id="text843"
   transform="scale(0.820048,1.2194408)"><tspan
     sodipodi:role="line"
     id="tspan841"
     x="6.5727601"
     y="42.736706"
     style="font-style:normal;font-variant:normal;font-weight:normal;font-stretch:normal;font-size:30.9715px;font-family:'方正超粗黑_GBK';-inkscape-font-specification:'方正超粗黑_GBK, Normal';font-variant-ligatures:normal;font-variant-caps:normal;font-variant-numeric:normal;font-feature-settings:normal;text-align:start;writing-mode:lr-tb;text-anchor:start;fill:#ffffff;fill-opacity:1;stroke:#000000;stroke-width:1.29792;stroke-miterlimit:4;stroke-dasharray:none;stroke-opacity:1">~~~</tspan></text>
<text
   xml:space="preserve"
   style="font-style:normal;font-weight:normal;font-size:66.1152px;line-height:125%;font-family:sans-serif;letter-spacing:0px;word-spacing:0px;display:inline;fill:#fff9f9;fill-opacity:1;stroke:#000000;stroke-width:1.65288px;stroke-linecap:butt;stroke-linejoin:miter;stroke-opacity:1"
   x="-0.53814822"
   y="57.257645"
   id="text843-1"
   transform="scale(0.98964593,1.0104624)"><tspan
     sodipodi:role="line"
     id="tspan841-0"
     x="-0.53814822"
     y="57.257645"
     style="fill:#fff9f9;fill-opacity:1;stroke:#000000;stroke-width:1.65288px;stroke-opacity:1">...</tspan></text>
</g><g
     style="display:inline"
     inkscape:label="text 复制"
     id="g871"
     inkscape:groupmode="layer"><g
       aria-label="~~~"
       transform="scale(0.820048,1.2194408)"
       style="font-style:normal;font-weight:normal;font-size:30.9715px;line-height:125%;font-family:sans-serif;letter-spacing:0px;word-spacing:0px;fill:#ffffff;fill-opacity:1;stroke:#000000;stroke-width:1.29792;stroke-linecap:butt;stroke-linejoin:miter;stroke-miterlimit:4;stroke-dasharray:none;stroke-opacity:1"
       id="text865" /><g
       aria-label="..."
       transform="scale(0.98964593,1.0104624)"
       style="font-style:normal;font-weight:normal;font-size:66.1152px;line-height:125%;font-family:sans-serif;letter-spacing:0px;word-spacing:0px;display:inline;fill:#fff9f9;fill-opacity:1;stroke:#000000;stroke-width:1.65288px;stroke-linecap:butt;stroke-linejoin:miter;stroke-opacity:1"
       id="text869"><path
         style="fill:#fff9f9;fill-opacity:1;stroke:#000000;stroke-width:1.65288px;stroke-opacity:1"
         d="m 44.825004,49.057811 h 6.811673 v 8.199834 h -6.811673 z"
         id="path898"
         inkscape:connector-curvature="0" /><path
         style="fill:#fff9f9;fill-opacity:1;stroke:#000000;stroke-width:1.65288px;stroke-opacity:1"
         d="m 26.739748,49.057811 h 6.811673 v 8.199834 h -6.811673 z"
         id="path896"
         inkscape:connector-curvature="0" /><path
         style="fill:#fff9f9;fill-opacity:1;stroke:#000000;stroke-width:1.65288px;stroke-opacity:1"
         d="m 8.5527121,49.057811 h 6.8116729 v 8.199834 H 8.5527121 Z"
         id="path894"
         inkscape:connector-curvature="0" /><path
         style="fill:#fff9f9;fill-opacity:1;stroke:#000000;stroke-width:1.65288px;stroke-opacity:1"
         d="m 40.934652,43.545097 v -6.716153 q 1.603989,-2.774064 4.009974,-2.774064 1.503742,-0.146004 3.207981,1.31403 1.403491,1.314029 2.606483,1.314029 1.503741,-0.146002 3.508729,-3.212073 v 6.716154 q -1.403492,2.628061 -3.809477,2.628061 -1.50374,0 -3.107731,-1.314031 -1.804488,-1.31403 -2.806982,-1.31403 -1.503741,-0.146003 -3.608977,3.358077 z"
         id="path892"
         inkscape:connector-curvature="0" /><path
         style="fill:#fff9f9;fill-opacity:1;stroke:#000000;stroke-width:1.65288px;stroke-opacity:1"
         d="m 24.092756,43.545097 v -6.716153 q 1.60399,-2.774064 4.009975,-2.774064 1.50374,-0.146004 3.20798,1.31403 1.403491,1.314029 2.606484,1.314029 1.50374,-0.146002 3.508727,-3.212073 v 6.716154 q -1.40349,2.628061 -3.809475,2.628061 -1.503742,0 -3.107731,-1.314031 -1.804489,-1.31403 -2.806983,-1.31403 -1.50374,-0.146003 -3.608977,3.358077 z"
         id="path890"
         inkscape:connector-curvature="0" /><path
         style="fill:#fff9f9;fill-opacity:1;stroke:#000000;stroke-width:1.65288px;stroke-opacity:1"
         d="m 7.2508597,43.545097 v -6.716153 q 1.6039898,-2.774064 4.0099753,-2.774064 1.50374,-0.146004 3.20798,1.31403 1.403491,1.314029 2.606483,1.314029 1.503742,-0.146002 3.508729,-3.212073 v 6.716154 q -1.403491,2.628061 -3.809477,2.628061 -1.50374,0 -3.10773,-1.314031 -1.804489,-1.31403 -2.806982,-1.31403 -1.5037417,-0.146003 -3.6089783,3.358077 z"
         id="path877"
         inkscape:connector-curvature="0" /></g></g></svg>
